<svg xmlns="http://www.w3.org/2000/svg" xml:space="preserve" viewBox="0 0 512 512">
  <path d="M504.082 303.505v110.846L324.091 304.35l.528-.845 73.896-68.618z" style="fill:#00954a"/>
  <path d="M504.082 414.351v36.948H7.918v-73.897l211.134-137.237 105.039 64.185z" style="fill:#0eb14c"/>
  <path d="M504.082 60.701v242.804l-105.567-68.618-73.896 68.618-.528.845-105.039-64.185L7.918 377.402V60.701z" style="fill:#0071bc"/>
  <path d="m504.082 371.515-148.288-96.958-31.175 28.948-.528.845 179.991 110.001z" style="fill:#008647"/>
  <path d="M504.082 451.299v-36.948L324.091 304.35l-105.039-64.185-38.63 25.109 315.893 186.025z" style="fill:#00ab4f"/>
  <path d="M7.918 60.701v316.701l211.134-137.237L256 262.743V60.701z" style="fill:#0089cc"/>
  <path d="M306.144 102.928c30.614 0 55.423 24.808 55.423 55.423s-24.808 55.423-55.423 55.423-55.423-24.808-55.423-55.423 24.809-55.423 55.423-55.423z" style="fill:#ffd311"/>
  <path d="M277.166 111.299c-15.814 9.76-26.445 27.099-26.445 47.051 0 30.614 24.808 55.423 55.423 55.423 14.673 0 27.919-5.805 37.833-15.11-32.37-19.111-56.665-50.253-66.811-87.364z" style="fill:#fabb1b"/>
  <path d="M155.711 139.876c14.568 0 26.392 11.824 26.392 26.392s-11.824 26.392-26.392 26.392H87.092c-14.568 0-26.392-11.824-26.392-26.392s11.824-26.392 26.392-26.392c.211 0 .317 0 .528.106 2.428-12.14 13.09-21.219 25.864-21.219 14.568 0 26.392 11.823 26.392 26.392v.106c4.434-3.273 9.818-5.385 15.835-5.385z" style="fill:#f1f2f2"/>
  <path d="M0 52.784v406.433h512V52.784H0zm496.165 15.835v220.297l-98.512-64.033-74.788 69.445-103.944-63.522L15.835 362.813V68.619h480.33zm0 331.614L336.9 302.905l62.477-58.015 96.788 62.913v92.43zm-480.33 43.148v-61.683l203.346-132.175 100.78 61.581L496.165 418.79v24.591H15.835z"/>
  <path d="M306.144 221.691c34.926 0 63.34-28.414 63.34-63.34s-28.414-63.34-63.34-63.34-63.34 28.414-63.34 63.34 28.415 63.34 63.34 63.34zm0-110.846c26.194 0 47.505 21.311 47.505 47.505s-21.311 47.505-47.505 47.505-47.505-21.311-47.505-47.505 21.311-47.505 47.505-47.505zM87.093 200.577h68.619c18.918 0 34.309-15.392 34.309-34.309s-15.392-34.309-34.309-34.309c-3.388 0-6.733.517-9.961 1.525-4.785-13.191-17.443-22.639-32.265-22.639-14.154 0-26.688 8.76-31.827 21.543-16.344 2.614-28.874 16.81-28.874 33.88-.001 18.918 15.39 34.309 34.308 34.309zm-1.439-52.726 7.698 3.849 2.033-10.165c1.721-8.607 9.333-14.854 18.099-14.854 10.186 0 18.474 8.288 18.474 18.474v15.791l12.619-9.314c3.45-2.546 7.195-3.836 11.133-3.836 10.186 0 18.474 8.288 18.474 18.474s-8.288 18.474-18.474 18.474H87.093c-10.186 0-18.474-8.288-18.474-18.474 0-9.698 7.507-17.674 17.035-18.419z"/>
  <path d="M204.892 329.91h191.924v15.835H204.892z" style="fill:#fff" transform="rotate(-148.496 300.852 337.824)"/>
  <path d="M374.107 314.087h106.882v15.836H374.107z" style="fill:#fff" transform="scale(-1) rotate(32.907 1090.276 -1447.633)"/>
  <path d="M414.351 100.289h36.948v15.835h-36.948zM440.742 137.237h36.948v15.835h-36.948zM39.588 95.01h36.948v15.835H39.588zM197.938 105.567h36.948v15.835h-36.948zM39.588 274.474h36.948v15.835H39.588zM92.371 232.247h36.948v15.835H92.371zM387.959 168.907h36.948v15.835h-36.948z" style="fill:#fff"/>
</svg>